<svg xmlns="http://www.w3.org/2000/svg" xmlns:xlink="http://www.w3.org/1999/xlink" width="500" zoomAndPan="magnify" viewBox="0 0 375 374.999991" height="500" preserveAspectRatio="xMidYMid meet" version="1.0"><defs><clipPath id="ff8f92db9f"><path d="M 0 4.660156 L 375 4.660156 L 375 370.339844 L 0 370.339844 Z M 0 4.660156 " clip-rule="nonzero"/></clipPath><clipPath id="4f05fee6ec"><path d="M 37.5 4.660156 L 337.5 4.660156 C 358.210938 4.660156 375 21.449219 375 42.160156 L 375 332.839844 C 375 353.550781 358.210938 370.339844 337.5 370.339844 L 37.5 370.339844 C 16.789062 370.339844 0 353.550781 0 332.839844 L 0 42.160156 C 0 21.449219 16.789062 4.660156 37.5 4.660156 Z M 37.5 4.660156 " clip-rule="nonzero"/></clipPath><clipPath id="d1a8098f2d"><path d="M 84.136719 190 L 185 190 L 185 290.746094 L 84.136719 290.746094 Z M 84.136719 190 " clip-rule="nonzero"/></clipPath><clipPath id="6c7ca0d2bc"><path d="M 190 84.136719 L 290.746094 84.136719 L 290.746094 185 L 190 185 Z M 190 84.136719 " clip-rule="nonzero"/></clipPath><clipPath id="18e16680b9"><path d="M 84.136719 84.136719 L 185 84.136719 L 185 185 L 84.136719 185 Z M 84.136719 84.136719 " clip-rule="nonzero"/></clipPath><clipPath id="94da3eee6e"><path d="M 190 190 L 290.746094 190 L 290.746094 290.746094 L 190 290.746094 Z M 190 190 " clip-rule="nonzero"/></clipPath></defs><g clip-path="url(#ff8f92db9f)"><g clip-path="url(#4f05fee6ec)"><path fill="#2a4ff6" d="M 0 4.660156 L 375.679688 4.660156 L 375.679688 370.339844 L 0 370.339844 Z M 0 4.660156 " fill-opacity="1" fill-rule="nonzero"/></g></g><g clip-path="url(#d1a8098f2d)"><path fill="#8cfbff" d="M 175.363281 264.128906 C 176.558594 264.148438 177.488281 265.15625 177.429688 266.347656 C 177.113281 272.859375 175.847656 279.199219 173.703125 285.207031 L 179.359375 290.859375 C 190.367188 264.441406 185.128906 232.855469 163.636719 211.363281 C 142.144531 189.867188 110.554688 184.628906 84.136719 195.636719 L 89.789062 201.292969 C 95.800781 199.152344 102.140625 197.882812 108.652344 197.566406 C 109.84375 197.507812 110.851562 198.4375 110.867188 199.632812 C 110.886719 200.761719 110.011719 201.710938 108.882812 201.765625 C 103.464844 202.027344 98.171875 202.992188 93.109375 204.613281 L 98.203125 209.707031 C 112.917969 205.851562 128.921875 208.199219 142.066406 216.75 C 135.207031 215.238281 127.746094 217.140625 122.410156 222.476562 C 114.097656 230.792969 114.097656 244.273438 122.410156 252.585938 C 130.726562 260.902344 144.207031 260.902344 152.519531 252.585938 C 157.855469 247.25 159.761719 239.789062 158.25 232.933594 C 166.796875 246.078125 169.144531 262.078125 165.292969 276.792969 L 170.386719 281.890625 C 172.003906 276.828125 172.972656 271.535156 173.234375 266.113281 C 173.285156 264.988281 174.238281 264.109375 175.363281 264.128906 " fill-opacity="1" fill-rule="nonzero"/></g><g clip-path="url(#6c7ca0d2bc)"><path fill="#8cfbff" d="M 285.207031 173.703125 C 279.199219 175.847656 272.859375 177.113281 266.347656 177.429688 C 265.15625 177.488281 264.148438 176.558594 264.128906 175.363281 C 264.113281 174.234375 264.988281 173.285156 266.113281 173.230469 C 271.535156 172.972656 276.828125 172.003906 281.890625 170.386719 L 276.796875 165.292969 C 262.082031 169.144531 246.078125 166.796875 232.933594 158.25 C 239.792969 159.761719 247.25 157.855469 252.589844 152.519531 C 260.902344 144.207031 260.902344 130.726562 252.589844 122.410156 C 244.273438 114.097656 230.792969 114.097656 222.480469 122.410156 C 217.144531 127.746094 215.238281 135.207031 216.75 142.066406 C 208.199219 128.917969 205.855469 112.917969 209.707031 98.203125 L 204.609375 93.105469 C 202.992188 98.167969 202.027344 103.464844 201.765625 108.882812 C 201.710938 110.011719 200.761719 110.886719 199.636719 110.867188 C 198.441406 110.847656 197.511719 109.839844 197.570312 108.648438 C 197.886719 102.140625 199.152344 95.796875 201.292969 89.789062 L 195.636719 84.136719 C 184.632812 110.554688 189.867188 142.144531 211.363281 163.636719 C 232.855469 185.128906 264.445312 190.367188 290.863281 179.359375 L 285.207031 173.703125 " fill-opacity="1" fill-rule="nonzero"/></g><g clip-path="url(#18e16680b9)"><path fill="#ffffff" d="M 110.871094 175.363281 C 110.851562 176.558594 109.84375 177.488281 108.652344 177.429688 C 102.140625 177.113281 95.800781 175.847656 89.789062 173.703125 L 84.136719 179.359375 C 110.554688 190.367188 142.144531 185.128906 163.636719 163.636719 C 185.132812 142.144531 190.367188 110.554688 179.359375 84.136719 L 173.707031 89.789062 C 175.847656 95.796875 177.113281 102.140625 177.429688 108.648438 C 177.488281 109.84375 176.558594 110.847656 175.367188 110.867188 C 174.238281 110.886719 173.289062 110.011719 173.234375 108.882812 C 172.972656 103.464844 172.007812 98.167969 170.386719 93.105469 L 165.292969 98.203125 C 169.144531 112.917969 166.796875 128.917969 158.25 142.066406 C 159.761719 135.207031 157.855469 127.746094 152.519531 122.410156 C 144.207031 114.097656 130.726562 114.097656 122.410156 122.410156 C 114.097656 130.726562 114.097656 144.207031 122.410156 152.519531 C 127.746094 157.855469 135.207031 159.761719 142.066406 158.25 C 128.921875 166.796875 112.917969 169.144531 98.203125 165.292969 L 93.109375 170.386719 C 98.171875 172.003906 103.464844 172.972656 108.886719 173.230469 C 110.011719 173.285156 110.886719 174.234375 110.871094 175.363281 " fill-opacity="1" fill-rule="nonzero"/></g><g clip-path="url(#94da3eee6e)"><path fill="#ffffff" d="M 201.292969 285.207031 C 199.148438 279.199219 197.882812 272.859375 197.566406 266.347656 C 197.507812 265.15625 198.4375 264.148438 199.632812 264.128906 C 200.761719 264.109375 201.710938 264.988281 201.765625 266.113281 C 202.023438 271.535156 202.992188 276.828125 204.609375 281.890625 L 209.707031 276.792969 C 205.851562 262.078125 208.199219 246.078125 216.75 232.933594 C 215.257812 239.691406 217.085938 247.039062 222.25 252.355469 C 230.339844 260.695312 243.8125 260.964844 252.21875 252.949219 C 260.898438 244.667969 261.023438 230.914062 252.585938 222.480469 C 247.25 217.140625 239.789062 215.238281 232.933594 216.75 C 246.078125 208.199219 262.078125 205.851562 276.792969 209.707031 L 281.886719 204.609375 C 276.828125 202.992188 271.535156 202.027344 266.113281 201.765625 C 264.988281 201.710938 264.109375 200.761719 264.128906 199.632812 C 264.144531 198.4375 265.15625 197.511719 266.347656 197.570312 C 270.359375 197.761719 274.304688 198.320312 278.152344 199.21875 C 282.730469 200.289062 287.535156 198.964844 290.859375 195.636719 C 264.441406 184.628906 232.851562 189.867188 211.363281 211.363281 C 189.867188 232.855469 184.628906 264.441406 195.636719 290.863281 L 201.292969 285.207031 " fill-opacity="1" fill-rule="nonzero"/></g></svg>