<svg xmlns="http://www.w3.org/2000/svg" xmlns:xlink="http://www.w3.org/1999/xlink" width="500" zoomAndPan="magnify" viewBox="0 0 375 374.999991" height="500" preserveAspectRatio="xMidYMid meet" version="1.0"><defs><clipPath id="8fb702cdd4"><path d="M 69.746094 190 L 185 190 L 185 305.246094 L 69.746094 305.246094 Z M 69.746094 190 " clip-rule="nonzero"/></clipPath><clipPath id="70f405bda8"><path d="M 190 69.746094 L 305.246094 69.746094 L 305.246094 185 L 190 185 Z M 190 69.746094 " clip-rule="nonzero"/></clipPath><clipPath id="0a33257b37"><path d="M 69.746094 69.746094 L 185 69.746094 L 185 185 L 69.746094 185 Z M 69.746094 69.746094 " clip-rule="nonzero"/></clipPath><clipPath id="8f04630c3f"><path d="M 190 190 L 305.246094 190 L 305.246094 305.246094 L 190 305.246094 Z M 190 190 " clip-rule="nonzero"/></clipPath></defs><g clip-path="url(#8fb702cdd4)"><path fill="#5ce1e6" d="M 173.671875 274.792969 C 175.03125 274.8125 176.089844 275.960938 176.027344 277.320312 C 175.664062 284.738281 174.222656 291.960938 171.78125 298.804688 L 178.222656 305.246094 C 190.761719 275.148438 184.796875 239.164062 160.3125 214.679688 C 135.828125 190.191406 99.839844 184.226562 69.746094 196.765625 L 76.183594 203.207031 C 83.03125 200.769531 90.253906 199.324219 97.671875 198.964844 C 99.027344 198.898438 100.175781 199.957031 100.199219 201.320312 C 100.21875 202.601562 99.222656 203.6875 97.9375 203.746094 C 91.761719 204.042969 85.734375 205.144531 79.964844 206.992188 L 85.769531 212.792969 C 102.535156 208.402344 120.761719 211.078125 135.738281 220.816406 C 127.925781 219.09375 119.425781 221.265625 113.347656 227.34375 C 103.875 236.816406 103.875 252.171875 113.347656 261.644531 C 122.820312 271.117188 138.175781 271.117188 147.648438 261.644531 C 153.726562 255.566406 155.898438 247.066406 154.175781 239.253906 C 163.910156 254.230469 166.585938 272.457031 162.199219 289.21875 L 168 295.023438 C 169.84375 289.257812 170.945312 283.226562 171.242188 277.054688 C 171.304688 275.769531 172.386719 274.773438 173.671875 274.792969 " fill-opacity="1" fill-rule="nonzero"/></g><g clip-path="url(#70f405bda8)"><path fill="#5ce1e6" d="M 298.804688 171.78125 C 291.960938 174.222656 284.738281 175.664062 277.320312 176.023438 C 275.964844 176.089844 274.816406 175.03125 274.792969 173.671875 C 274.773438 172.386719 275.769531 171.304688 277.054688 171.242188 C 283.226562 170.945312 289.261719 169.84375 295.027344 168 L 289.222656 162.195312 C 272.457031 166.585938 254.230469 163.910156 239.253906 154.175781 C 247.066406 155.894531 255.566406 153.722656 261.644531 147.648438 C 271.117188 138.175781 271.117188 122.816406 261.644531 113.347656 C 252.175781 103.875 236.816406 103.875 227.34375 113.347656 C 221.265625 119.421875 219.09375 127.921875 220.816406 135.738281 C 211.078125 120.761719 208.40625 102.53125 212.796875 85.769531 L 206.988281 79.964844 C 205.148438 85.730469 204.046875 91.761719 203.746094 97.9375 C 203.6875 99.21875 202.605469 100.21875 201.320312 100.199219 C 199.960938 100.175781 198.898438 99.027344 198.96875 97.667969 C 199.328125 90.253906 200.769531 83.03125 203.210938 76.183594 L 196.769531 69.742188 C 184.226562 99.839844 190.195312 135.824219 214.679688 160.3125 C 239.164062 184.796875 275.152344 190.761719 305.246094 178.222656 L 298.804688 171.78125 " fill-opacity="1" fill-rule="nonzero"/></g><g clip-path="url(#0a33257b37)"><path fill="#2a4ff6" d="M 100.199219 173.671875 C 100.175781 175.03125 99.027344 176.089844 97.671875 176.023438 C 90.253906 175.664062 83.03125 174.222656 76.1875 171.78125 L 69.746094 178.222656 C 99.839844 190.761719 135.828125 184.796875 160.3125 160.3125 C 184.796875 135.824219 190.761719 99.839844 178.222656 69.742188 L 171.78125 76.183594 C 174.222656 83.03125 175.664062 90.253906 176.027344 97.667969 C 176.089844 99.027344 175.03125 100.175781 173.671875 100.199219 C 172.386719 100.21875 171.304688 99.21875 171.242188 97.9375 C 170.945312 91.761719 169.847656 85.730469 168.003906 79.964844 L 162.199219 85.769531 C 166.585938 102.53125 163.914062 120.761719 154.175781 135.738281 C 155.898438 127.921875 153.726562 119.421875 147.648438 113.347656 C 138.175781 103.875 122.820312 103.875 113.347656 113.347656 C 103.875 122.816406 103.875 138.175781 113.347656 147.648438 C 119.425781 153.722656 127.925781 155.894531 135.738281 154.175781 C 120.761719 163.910156 102.535156 166.585938 85.769531 162.195312 L 79.964844 168 C 85.734375 169.84375 91.765625 170.945312 97.9375 171.242188 C 99.222656 171.304688 100.21875 172.386719 100.199219 173.671875 " fill-opacity="1" fill-rule="nonzero"/></g><g clip-path="url(#8f04630c3f)"><path fill="#2a4ff6" d="M 203.207031 298.804688 C 200.765625 291.960938 199.324219 284.738281 198.964844 277.320312 C 198.898438 275.960938 199.957031 274.8125 201.320312 274.792969 C 202.605469 274.773438 203.683594 275.769531 203.746094 277.054688 C 204.042969 283.226562 205.144531 289.257812 206.988281 295.023438 L 212.792969 289.21875 C 208.402344 272.457031 211.078125 254.230469 220.816406 239.253906 C 219.117188 246.953125 221.203125 255.324219 227.082031 261.382812 C 236.300781 270.878906 251.644531 271.1875 261.222656 262.054688 C 271.113281 252.621094 271.253906 236.953125 261.644531 227.34375 C 255.5625 221.265625 247.066406 219.09375 239.253906 220.816406 C 254.226562 211.078125 272.457031 208.402344 289.21875 212.792969 L 295.023438 206.988281 C 289.257812 205.148438 283.226562 204.042969 277.050781 203.746094 C 275.769531 203.6875 274.773438 202.605469 274.789062 201.320312 C 274.8125 199.957031 275.960938 198.898438 277.320312 198.964844 C 281.886719 199.1875 286.386719 199.820312 290.765625 200.84375 C 295.980469 202.066406 301.457031 200.554688 305.246094 196.769531 C 275.148438 184.226562 239.164062 190.191406 214.679688 214.679688 C 190.191406 239.164062 184.226562 275.148438 196.769531 305.246094 L 203.207031 298.804688 " fill-opacity="1" fill-rule="nonzero"/></g></svg>